<svg xmlns="http://www.w3.org/2000/svg" viewBox="0 0 124.16 25.51"><defs><style>.a{fill:#004080;}</style></defs><path class="a" d="M17.06,22.11a14.41,14.41,0,0,1-2.22,2.27,5.67,5.67,0,0,1-3,.92H0V.17H11.81a5.5,5.5,0,0,1,3,1,14.91,14.91,0,0,1,2.22,2.28A4.56,4.56,0,0,1,17.78,6V9.12a4.67,4.67,0,0,1-1.64,3.66,4.56,4.56,0,0,1,1.64,3.61v3.2a4.47,4.47,0,0,1-.72,2.52M13.37,9v-3a.78.78,0,0,0,0-.21c-.37-.67-1.18-1.47-1.55-1.47H4.41v6.35h7.4c.38,0,1.22-.76,1.51-1.39a.6.6,0,0,0,0-.29m0,10.38v-3a.47.47,0,0,0,0-.21c-.37-.67-1.18-1.43-1.55-1.43H4.41V21.1h7.4c.38,0,1.22-.76,1.51-1.39a.83.83,0,0,0,0-.29"/><path class="a" d="M36.35,25.3,34.5,20H25L23.11,25.3H18.4L27.19.17h5.13L41.06,25.3ZM29.75,5.84l-3.4,9.92h6.77Z"/><path class="a" d="M58.51,22c-1.09,1.48-3,3.49-5.34,3.49H47.92a5.31,5.31,0,0,1-2.61-.75,13.81,13.81,0,0,1-3.06-3,4.17,4.17,0,0,1-.68-2.39V6.14a4.1,4.1,0,0,1,.68-2.36,14.87,14.87,0,0,1,3.06-3A5.78,5.78,0,0,1,47.92,0h5.25c2.36,0,4.25,2.06,5.34,3.49A11.84,11.84,0,0,1,59.39,5L55.11,6.18a12.27,12.27,0,0,0-1.89-1.93.24.24,0,0,0-.17,0h-5a.36.36,0,0,0-.17,0A6.44,6.44,0,0,0,46,6.09a1.87,1.87,0,0,0,0,.47V19.34c0,.5,1.3,1.59,1.93,1.93,0,0,.25,0,.29,0H53a.49.49,0,0,0,.21,0,6.83,6.83,0,0,0,1.89-2l4.28,1.14A7.33,7.33,0,0,1,58.51,22"/><polygon class="a" points="75.02 25.3 75.02 14.92 65.85 14.92 65.85 25.3 61.44 25.3 61.44 0.17 65.85 0.17 65.85 10.72 75.02 10.72 75.02 0.17 79.43 0.17 79.43 25.3 75.02 25.3"/><polygon class="a" points="83.23 25.3 83.23 0.17 99.03 0.17 99.03 4.37 87.64 4.37 87.64 10.72 98.36 10.72 98.36 14.92 87.64 14.92 87.64 21.1 99.03 21.1 99.03 25.3 83.23 25.3"/><polygon class="a" points="119.75 25.3 119.75 8.11 114.75 19.12 111.85 19.12 106.85 8.15 106.85 25.3 102.43 25.3 102.43 0.17 107.48 0.17 113.36 12.57 119.16 0.17 124.16 0.17 124.16 25.3 119.75 25.3"/></svg>